<svg xmlns="http://www.w3.org/2000/svg" version="1.0" width="64.000000pt" height="64.000000pt" viewBox="0 0 64.000000 64.000000" preserveAspectRatio="xMidYMid meet">

<g transform="translate(0.000000,64.000000) scale(0.100000,-0.100000)" fill="#ccc" stroke="none">
<path d="M536 555 c-9 -26 -7 -32 5 -12 6 10 9 21 6 23 -2 3 -7 -2 -11 -11z" fill="#ccc"/>
<path d="M566 525 c-11 -8 -17 -17 -14 -20 3 -3 16 3 29 14 27 23 14 28 -15 6z" fill="#ccc"/>
<path d="M46 479 c-30 -58 -32 -95 -15 -265 7 -69 16 -114 25 -124 12 -13 55 -15 261 -15 188 0 247 3 250 13 3 6 -2 12 -10 12 -12 0 -13 7 -7 38 5 20 11 77 15 127 4 50 9 98 11 107 3 10 -4 25 -15 35 -14 12 -21 29 -21 54 0 67 -9 69 -252 69 l-215 0 -27 -51z m472 13 c6 -9 12 -28 12 -44 l0 -28 -83 0 c-76 0 -86 2 -107 25 -23 24 -28 25 -147 25 -115 0 -123 1 -123 19 0 11 6 22 13 25 6 3 104 3 217 0 171 -5 207 -8 218 -22z m-180 -62 c31 -29 35 -30 122 -30 69 0 92 -3 96 -14 3 -8 0 -72 -8 -143 l-13 -128 -232 -3 -231 -2 -6 47 c-15 127 -27 284 -21 293 4 6 59 10 134 10 l128 0 31 -30z" fill="#ccc"/>
<path d="M370 354 c0 -6 5 -15 12 -22 8 -8 8 -15 -2 -27 -8 -9 -8 -15 -2 -15 6 0 14 5 17 11 5 7 14 4 26 -7 20 -18 27 -6 7 14 -8 8 -8 15 2 27 8 9 8 15 2 15 -6 0 -14 -5 -17 -11 -5 -7 -14 -4 -26 7 -10 9 -19 13 -19 8z" fill="#ccc"/>
<path d="M130 344 c0 -5 5 -15 12 -22 9 -9 9 -15 0 -24 -19 -19 -14 -30 7 -18 11 5 28 7 38 3 15 -5 16 -3 6 7 -10 11 -9 17 4 32 21 24 9 36 -15 15 -17 -15 -19 -15 -35 0 -9 10 -17 13 -17 7z" fill="#ccc"/>
<path d="M265 223 c-26 -7 -65 -33 -65 -44 0 -5 15 0 33 11 39 24 94 26 125 4 13 -9 26 -14 29 -11 8 9 -41 36 -73 41 -16 2 -38 2 -49 -1z" fill="#ccc"/>
<path d="M565 480 c-8 -13 25 -13 45 0 12 8 9 10 -12 10 -15 0 -30 -4 -33 -10z" fill="#ccc"/>
</g>
</svg>